# xmcd CD database file generated by libcdaudio 0.99.6
# 
# Track frame offsets:
#       150
#       16457
#       32875
#       46341
#       58962
# 
# Disc length: 927 seconds
# 
# Revision: 1
# Processed by: cddbd v1.5.2PL0 Copyright (c) Steve Scherf et al.
# Submitted via: libcdaudio 0.99.6
# 
DISCID=40039d05
DTITLE=Wax and Wane - 
DYEAR=1900
DGENRE=
TTITLE0=at night
TTITLE1=whistler
TTITLE2=road's altar
TTITLE3=dark times.
TTITLE4=blood is throat
EXTD=
EXTT0=
EXTT1=
EXTT2=
EXTT3=
EXTT4=
PLAYORDER=
